<mxfile host="app.diagrams.net" agent="Mozilla/5.0 (Windows NT 10.0; Win64; x64) AppleWebKit/537.36 (KHTML, like Gecko) Chrome/134.0.0.0 Safari/537.36" version="26.2.4">
  <diagram name="Página-1" id="Jz3FKSBxB8kqMYvkfYH8">
    <mxGraphModel grid="1" page="1" gridSize="10" guides="1" tooltips="1" connect="1" arrows="1" fold="1" pageScale="2" pageWidth="827" pageHeight="1169" math="0" shadow="0">
      <root>
        <mxCell id="0" />
        <mxCell id="1" parent="0" />
        <mxCell id="Bbrx2SUd1daunCyG_krZ-1" value="Operador" style="shape=umlActor;verticalLabelPosition=bottom;verticalAlign=top;html=1;outlineConnect=0;" vertex="1" parent="1">
          <mxGeometry x="60" y="335" width="30" height="60" as="geometry" />
        </mxCell>
        <mxCell id="Bbrx2SUd1daunCyG_krZ-2" value="Iniciar sessão" style="ellipse;whiteSpace=wrap;html=1;" vertex="1" parent="1">
          <mxGeometry x="170" y="190" width="120" height="80" as="geometry" />
        </mxCell>
        <mxCell id="Bbrx2SUd1daunCyG_krZ-23" style="edgeStyle=orthogonalEdgeStyle;rounded=0;orthogonalLoop=1;jettySize=auto;html=1;exitX=0;exitY=0.5;exitDx=0;exitDy=0;" edge="1" parent="1" source="Bbrx2SUd1daunCyG_krZ-6" target="Bbrx2SUd1daunCyG_krZ-1">
          <mxGeometry relative="1" as="geometry" />
        </mxCell>
        <mxCell id="Bbrx2SUd1daunCyG_krZ-6" value="Selecionar drone" style="ellipse;whiteSpace=wrap;html=1;" vertex="1" parent="1">
          <mxGeometry x="170" y="325" width="120" height="80" as="geometry" />
        </mxCell>
        <mxCell id="Bbrx2SUd1daunCyG_krZ-24" style="edgeStyle=orthogonalEdgeStyle;rounded=0;orthogonalLoop=1;jettySize=auto;html=1;exitX=0;exitY=0.5;exitDx=0;exitDy=0;" edge="1" parent="1" source="Bbrx2SUd1daunCyG_krZ-8">
          <mxGeometry relative="1" as="geometry">
            <mxPoint x="80" y="420" as="targetPoint" />
          </mxGeometry>
        </mxCell>
        <mxCell id="Bbrx2SUd1daunCyG_krZ-32" style="edgeStyle=orthogonalEdgeStyle;rounded=0;orthogonalLoop=1;jettySize=auto;html=1;exitX=0.5;exitY=1;exitDx=0;exitDy=0;entryX=0.5;entryY=0;entryDx=0;entryDy=0;dashed=1;endArrow=classic;startFill=0;endFill=1;" edge="1" parent="1" source="Bbrx2SUd1daunCyG_krZ-8" target="Bbrx2SUd1daunCyG_krZ-16">
          <mxGeometry relative="1" as="geometry" />
        </mxCell>
        <mxCell id="Bbrx2SUd1daunCyG_krZ-8" value="Transmitir comandos de controles" style="ellipse;whiteSpace=wrap;html=1;" vertex="1" parent="1">
          <mxGeometry x="170" y="460" width="120" height="80" as="geometry" />
        </mxCell>
        <mxCell id="Bbrx2SUd1daunCyG_krZ-11" value="Central de&lt;div&gt;controle&lt;/div&gt;" style="shape=umlActor;verticalLabelPosition=bottom;verticalAlign=top;html=1;outlineConnect=0;" vertex="1" parent="1">
          <mxGeometry x="694.25" y="335" width="30" height="60" as="geometry" />
        </mxCell>
        <mxCell id="Bbrx2SUd1daunCyG_krZ-48" style="edgeStyle=orthogonalEdgeStyle;rounded=0;orthogonalLoop=1;jettySize=auto;html=1;exitX=1;exitY=0.5;exitDx=0;exitDy=0;" edge="1" parent="1" source="Bbrx2SUd1daunCyG_krZ-12">
          <mxGeometry relative="1" as="geometry">
            <mxPoint x="710" y="330" as="targetPoint" />
          </mxGeometry>
        </mxCell>
        <mxCell id="Bbrx2SUd1daunCyG_krZ-12" value="Autenticar credenciais do operador" style="ellipse;whiteSpace=wrap;html=1;" vertex="1" parent="1">
          <mxGeometry x="410" y="185" width="160" height="90" as="geometry" />
        </mxCell>
        <mxCell id="Bbrx2SUd1daunCyG_krZ-47" style="edgeStyle=orthogonalEdgeStyle;rounded=0;orthogonalLoop=1;jettySize=auto;html=1;exitX=1;exitY=0.5;exitDx=0;exitDy=0;" edge="1" parent="1" source="Bbrx2SUd1daunCyG_krZ-13">
          <mxGeometry relative="1" as="geometry">
            <mxPoint x="680" y="364.7142857142858" as="targetPoint" />
          </mxGeometry>
        </mxCell>
        <mxCell id="Bbrx2SUd1daunCyG_krZ-13" value="Exibir interface de gerenciamento" style="ellipse;whiteSpace=wrap;html=1;" vertex="1" parent="1">
          <mxGeometry x="410" y="320" width="160" height="90" as="geometry" />
        </mxCell>
        <mxCell id="Bbrx2SUd1daunCyG_krZ-30" style="edgeStyle=orthogonalEdgeStyle;rounded=0;orthogonalLoop=1;jettySize=auto;html=1;exitX=0;exitY=0.5;exitDx=0;exitDy=0;entryX=1;entryY=0.5;entryDx=0;entryDy=0;dashed=1;endArrow=classic;startFill=0;startArrow=none;endFill=1;" edge="1" parent="1" source="Bbrx2SUd1daunCyG_krZ-14" target="Bbrx2SUd1daunCyG_krZ-29">
          <mxGeometry relative="1" as="geometry" />
        </mxCell>
        <mxCell id="Bbrx2SUd1daunCyG_krZ-55" value="" style="edgeStyle=orthogonalEdgeStyle;rounded=0;orthogonalLoop=1;jettySize=auto;html=1;dashed=1;" edge="1" parent="1" source="Bbrx2SUd1daunCyG_krZ-14" target="Bbrx2SUd1daunCyG_krZ-54">
          <mxGeometry relative="1" as="geometry" />
        </mxCell>
        <mxCell id="Bbrx2SUd1daunCyG_krZ-14" value="Exibir dashboard de telemetria" style="ellipse;whiteSpace=wrap;html=1;" vertex="1" parent="1">
          <mxGeometry x="460" y="450" width="160" height="100" as="geometry" />
        </mxCell>
        <mxCell id="Bbrx2SUd1daunCyG_krZ-36" style="edgeStyle=orthogonalEdgeStyle;rounded=0;orthogonalLoop=1;jettySize=auto;html=1;exitX=0.5;exitY=0;exitDx=0;exitDy=0;" edge="1" parent="1" source="Bbrx2SUd1daunCyG_krZ-15">
          <mxGeometry relative="1" as="geometry">
            <mxPoint x="404.7142857142858" y="660" as="targetPoint" />
          </mxGeometry>
        </mxCell>
        <mxCell id="Bbrx2SUd1daunCyG_krZ-45" style="edgeStyle=orthogonalEdgeStyle;rounded=0;orthogonalLoop=1;jettySize=auto;html=1;exitX=1;exitY=0.5;exitDx=0;exitDy=0;entryX=0.5;entryY=1;entryDx=0;entryDy=0;" edge="1" parent="1" source="Bbrx2SUd1daunCyG_krZ-15" target="Bbrx2SUd1daunCyG_krZ-18">
          <mxGeometry relative="1" as="geometry" />
        </mxCell>
        <mxCell id="Bbrx2SUd1daunCyG_krZ-15" value="Enviar dados de telemetria" style="ellipse;whiteSpace=wrap;html=1;" vertex="1" parent="1">
          <mxGeometry x="340" y="690" width="130" height="80" as="geometry" />
        </mxCell>
        <mxCell id="Bbrx2SUd1daunCyG_krZ-33" style="edgeStyle=orthogonalEdgeStyle;rounded=0;orthogonalLoop=1;jettySize=auto;html=1;exitX=0.5;exitY=1;exitDx=0;exitDy=0;entryX=0.5;entryY=0;entryDx=0;entryDy=0;dashed=1;endArrow=classic;startFill=0;endFill=1;" edge="1" parent="1" source="Bbrx2SUd1daunCyG_krZ-16" target="Bbrx2SUd1daunCyG_krZ-17">
          <mxGeometry relative="1" as="geometry" />
        </mxCell>
        <mxCell id="Bbrx2SUd1daunCyG_krZ-40" style="edgeStyle=orthogonalEdgeStyle;rounded=0;orthogonalLoop=1;jettySize=auto;html=1;exitX=1;exitY=0.5;exitDx=0;exitDy=0;endArrow=none;startFill=0;" edge="1" parent="1" source="Bbrx2SUd1daunCyG_krZ-16">
          <mxGeometry relative="1" as="geometry">
            <mxPoint x="380" y="600" as="targetPoint" />
          </mxGeometry>
        </mxCell>
        <mxCell id="Bbrx2SUd1daunCyG_krZ-16" value="Receber comandos de controle" style="ellipse;whiteSpace=wrap;html=1;" vertex="1" parent="1">
          <mxGeometry x="152.5" y="590" width="155" height="70" as="geometry" />
        </mxCell>
        <mxCell id="Bbrx2SUd1daunCyG_krZ-34" style="edgeStyle=orthogonalEdgeStyle;rounded=0;orthogonalLoop=1;jettySize=auto;html=1;exitX=1;exitY=0.5;exitDx=0;exitDy=0;entryX=0;entryY=0.5;entryDx=0;entryDy=0;dashed=1;endArrow=classic;startFill=0;endFill=1;" edge="1" parent="1" source="Bbrx2SUd1daunCyG_krZ-17" target="Bbrx2SUd1daunCyG_krZ-15">
          <mxGeometry relative="1" as="geometry" />
        </mxCell>
        <mxCell id="Bbrx2SUd1daunCyG_krZ-17" value="Executar comandos" style="ellipse;whiteSpace=wrap;html=1;" vertex="1" parent="1">
          <mxGeometry x="181.25" y="700" width="97.5" height="60" as="geometry" />
        </mxCell>
        <mxCell id="Bbrx2SUd1daunCyG_krZ-46" style="edgeStyle=orthogonalEdgeStyle;rounded=0;orthogonalLoop=1;jettySize=auto;html=1;exitX=0.5;exitY=0;exitDx=0;exitDy=0;" edge="1" parent="1" source="Bbrx2SUd1daunCyG_krZ-18">
          <mxGeometry relative="1" as="geometry">
            <mxPoint x="709" y="440" as="targetPoint" />
          </mxGeometry>
        </mxCell>
        <mxCell id="Bbrx2SUd1daunCyG_krZ-18" value="Atualizar dashboard com dados recebidos" style="ellipse;whiteSpace=wrap;html=1;" vertex="1" parent="1">
          <mxGeometry x="628.5" y="550" width="161.5" height="90" as="geometry" />
        </mxCell>
        <mxCell id="Bbrx2SUd1daunCyG_krZ-22" style="edgeStyle=orthogonalEdgeStyle;rounded=0;orthogonalLoop=1;jettySize=auto;html=1;exitX=0;exitY=0.5;exitDx=0;exitDy=0;entryX=0.5;entryY=0;entryDx=0;entryDy=0;entryPerimeter=0;" edge="1" parent="1" source="Bbrx2SUd1daunCyG_krZ-2" target="Bbrx2SUd1daunCyG_krZ-1">
          <mxGeometry relative="1" as="geometry" />
        </mxCell>
        <mxCell id="Bbrx2SUd1daunCyG_krZ-25" value="" style="endArrow=classic;dashed=1;html=1;rounded=0;entryX=0;entryY=0.5;entryDx=0;entryDy=0;exitX=1;exitY=0.5;exitDx=0;exitDy=0;endFill=1;" edge="1" parent="1" source="Bbrx2SUd1daunCyG_krZ-2" target="Bbrx2SUd1daunCyG_krZ-12">
          <mxGeometry width="50" height="50" relative="1" as="geometry">
            <mxPoint x="330" y="310" as="sourcePoint" />
            <mxPoint x="380" y="260" as="targetPoint" />
          </mxGeometry>
        </mxCell>
        <mxCell id="Bbrx2SUd1daunCyG_krZ-26" value="" style="endArrow=none;dashed=1;html=1;rounded=0;entryX=0.5;entryY=1;entryDx=0;entryDy=0;exitX=0.5;exitY=0;exitDx=0;exitDy=0;endFill=1;startFill=1;startArrow=classic;" edge="1" parent="1" source="Bbrx2SUd1daunCyG_krZ-13" target="Bbrx2SUd1daunCyG_krZ-12">
          <mxGeometry width="50" height="50" relative="1" as="geometry">
            <mxPoint x="340" y="320" as="sourcePoint" />
            <mxPoint x="390" y="270" as="targetPoint" />
          </mxGeometry>
        </mxCell>
        <mxCell id="Bbrx2SUd1daunCyG_krZ-27" value="" style="endArrow=none;dashed=1;html=1;rounded=0;exitX=1;exitY=0.5;exitDx=0;exitDy=0;entryX=0;entryY=0.5;entryDx=0;entryDy=0;endFill=1;startFill=1;startArrow=classic;" edge="1" parent="1" source="Bbrx2SUd1daunCyG_krZ-6" target="Bbrx2SUd1daunCyG_krZ-13">
          <mxGeometry width="50" height="50" relative="1" as="geometry">
            <mxPoint x="350" y="330" as="sourcePoint" />
            <mxPoint x="400" y="280" as="targetPoint" />
          </mxGeometry>
        </mxCell>
        <mxCell id="Bbrx2SUd1daunCyG_krZ-28" value="" style="endArrow=classic;dashed=1;html=1;rounded=0;exitX=1;exitY=1;exitDx=0;exitDy=0;entryX=0;entryY=0;entryDx=0;entryDy=0;endFill=1;" edge="1" parent="1" source="Bbrx2SUd1daunCyG_krZ-6" target="Bbrx2SUd1daunCyG_krZ-14">
          <mxGeometry width="50" height="50" relative="1" as="geometry">
            <mxPoint x="360" y="340" as="sourcePoint" />
            <mxPoint x="410" y="290" as="targetPoint" />
          </mxGeometry>
        </mxCell>
        <mxCell id="Bbrx2SUd1daunCyG_krZ-31" style="edgeStyle=orthogonalEdgeStyle;rounded=0;orthogonalLoop=1;jettySize=auto;html=1;exitX=0;exitY=0.5;exitDx=0;exitDy=0;entryX=1;entryY=0.5;entryDx=0;entryDy=0;dashed=1;endArrow=classic;startFill=0;endFill=1;" edge="1" parent="1" source="Bbrx2SUd1daunCyG_krZ-29" target="Bbrx2SUd1daunCyG_krZ-8">
          <mxGeometry relative="1" as="geometry" />
        </mxCell>
        <mxCell id="Bbrx2SUd1daunCyG_krZ-29" value="Dashboard não atualizado" style="ellipse;whiteSpace=wrap;html=1;" vertex="1" parent="1">
          <mxGeometry x="340" y="470" width="80" height="60" as="geometry" />
        </mxCell>
        <mxCell id="Bbrx2SUd1daunCyG_krZ-35" value="Drone" style="shape=umlActor;verticalLabelPosition=bottom;verticalAlign=top;html=1;outlineConnect=0;" vertex="1" parent="1">
          <mxGeometry x="390" y="580" width="30" height="60" as="geometry" />
        </mxCell>
        <mxCell id="Bbrx2SUd1daunCyG_krZ-39" value="" style="endArrow=none;html=1;rounded=0;exitX=1;exitY=0;exitDx=0;exitDy=0;" edge="1" parent="1" source="Bbrx2SUd1daunCyG_krZ-17" target="Bbrx2SUd1daunCyG_krZ-35">
          <mxGeometry width="50" height="50" relative="1" as="geometry">
            <mxPoint x="280" y="710" as="sourcePoint" />
            <mxPoint x="330" y="660" as="targetPoint" />
          </mxGeometry>
        </mxCell>
        <mxCell id="Bbrx2SUd1daunCyG_krZ-49" value="" style="endArrow=none;html=1;rounded=0;exitX=1;exitY=0;exitDx=0;exitDy=0;" edge="1" parent="1" source="Bbrx2SUd1daunCyG_krZ-14">
          <mxGeometry width="50" height="50" relative="1" as="geometry">
            <mxPoint x="600" y="450" as="sourcePoint" />
            <mxPoint x="680" y="390" as="targetPoint" />
          </mxGeometry>
        </mxCell>
        <mxCell id="Bbrx2SUd1daunCyG_krZ-50" value="&amp;lt;include&amp;gt;" style="text;html=1;align=center;verticalAlign=middle;resizable=0;points=[];autosize=1;strokeColor=none;fillColor=none;" vertex="1" parent="1">
          <mxGeometry x="300" y="200" width="80" height="30" as="geometry" />
        </mxCell>
        <mxCell id="Bbrx2SUd1daunCyG_krZ-51" value="&amp;lt;extend&amp;gt;" style="text;html=1;align=center;verticalAlign=middle;resizable=0;points=[];autosize=1;strokeColor=none;fillColor=none;" vertex="1" parent="1">
          <mxGeometry x="400" y="510" width="70" height="30" as="geometry" />
        </mxCell>
        <mxCell id="Bbrx2SUd1daunCyG_krZ-52" value="&amp;lt;include&amp;gt;" style="text;html=1;align=center;verticalAlign=middle;resizable=0;points=[];autosize=1;strokeColor=none;fillColor=none;" vertex="1" parent="1">
          <mxGeometry x="410" y="280" width="80" height="30" as="geometry" />
        </mxCell>
        <mxCell id="Bbrx2SUd1daunCyG_krZ-54" value="Dashboard atualizado" style="ellipse;whiteSpace=wrap;html=1;" vertex="1" parent="1">
          <mxGeometry x="490" y="590" width="100" height="50" as="geometry" />
        </mxCell>
        <mxCell id="Bbrx2SUd1daunCyG_krZ-56" value="&amp;lt;extend&amp;gt;" style="text;html=1;align=center;verticalAlign=middle;resizable=0;points=[];autosize=1;strokeColor=none;fillColor=none;" vertex="1" parent="1">
          <mxGeometry x="470" y="550" width="70" height="30" as="geometry" />
        </mxCell>
        <mxCell id="Bbrx2SUd1daunCyG_krZ-57" value="&amp;lt;include&amp;gt;" style="text;html=1;align=center;verticalAlign=middle;resizable=0;points=[];autosize=1;strokeColor=none;fillColor=none;" vertex="1" parent="1">
          <mxGeometry x="278.75" y="460" width="80" height="30" as="geometry" />
        </mxCell>
        <mxCell id="Bbrx2SUd1daunCyG_krZ-58" value="&amp;lt;include&amp;gt;" style="text;html=1;align=center;verticalAlign=middle;resizable=0;points=[];autosize=1;strokeColor=none;fillColor=none;" vertex="1" parent="1">
          <mxGeometry x="160" y="550" width="80" height="30" as="geometry" />
        </mxCell>
        <mxCell id="Bbrx2SUd1daunCyG_krZ-59" value="&amp;lt;include&amp;gt;" style="text;html=1;align=center;verticalAlign=middle;resizable=0;points=[];autosize=1;strokeColor=none;fillColor=none;" vertex="1" parent="1">
          <mxGeometry x="160" y="670" width="80" height="30" as="geometry" />
        </mxCell>
        <mxCell id="Bbrx2SUd1daunCyG_krZ-60" value="&amp;lt;include&amp;gt;" style="text;html=1;align=center;verticalAlign=middle;resizable=0;points=[];autosize=1;strokeColor=none;fillColor=none;" vertex="1" parent="1">
          <mxGeometry x="270" y="730" width="80" height="30" as="geometry" />
        </mxCell>
        <mxCell id="Bbrx2SUd1daunCyG_krZ-61" value="&amp;lt;include&amp;gt;" style="text;html=1;align=center;verticalAlign=middle;resizable=0;points=[];autosize=1;strokeColor=none;fillColor=none;" vertex="1" parent="1">
          <mxGeometry x="310" y="335" width="80" height="30" as="geometry" />
        </mxCell>
        <mxCell id="Bbrx2SUd1daunCyG_krZ-62" value="&amp;lt;include&amp;gt;" style="text;html=1;align=center;verticalAlign=middle;resizable=0;points=[];autosize=1;strokeColor=none;fillColor=none;" vertex="1" parent="1">
          <mxGeometry x="350" y="395" width="80" height="30" as="geometry" />
        </mxCell>
      </root>
    </mxGraphModel>
  </diagram>
</mxfile>
